<?xml version="1.0" encoding="utf-8"?>
<!-- Generator: Adobe Illustrator 25.1.0, SVG Export Plug-In . SVG Version: 6.00 Build 0)  -->
<svg version="1.1" id="Layer_1" xmlns="http://www.w3.org/2000/svg" xmlns:xlink="http://www.w3.org/1999/xlink" x="0px" y="0px"
	 viewBox="0 0 228 229.4" enable-background="new 0 0 228 229.4" xml:space="preserve">
<g>
	<g>
		<g>
			<path fill="#231F20" d="M11.4,88.1l2.2-9.3L23,81l-0.7,2.8l-1.7,0.4c1.1,2,1.2,4.3,0.3,8.1c-1.1,4.6-3.7,10.6-11.4,8.8
				C2.3,99.4,2,93.2,3.2,88.2c1.7-7.3,4.5-10.3,8.9-9.8l-1.7,7.4c-0.9,0-1.6,0.3-2,0.9c-0.4,0.6-0.7,1.3-0.9,2.1
				c-0.6,2.7,0.3,4.7,3.7,5.5c3.1,0.7,5.1-0.5,5.9-3.8c0.5-2.1-0.1-3.4-1.3-4.2L15.2,89L11.4,88.1z"/>
			<path fill="#231F20" d="M13,62l9.3-15.5l3.6,2.2L20,58.4l2,1.2l5.4-9.1l3.6,2.2l-5.4,9.1l2,1.2l5.9-9.8l3.6,2.2l-9.3,15.5L13,62z
				"/>
			<path fill="#231F20" d="M32.1,34.5l5.8-5.1L49.3,32l0.1,0L43,24.8l4.8-4.3l11.3,12.9l-5.5,4.9l-11.7-2.5l0,0l6.3,7.2l-4.8,4.3
				L32.1,34.5z"/>
			<path fill="#231F20" d="M62.3,11.9l16.7-7l1.6,3.9l-10.5,4.4l0.9,2.1l9.8-4.1l1.6,3.9l-9.8,4.1l0.9,2.1L84,16.9l1.6,3.9l-16.7,7
				L62.3,11.9z"/>
			<path fill="#231F20" d="M94.2,1.2l14.1-1.2c1.9-0.2,3.1-0.1,4.1,0.3c1.3,0.5,2.5,2.1,2.6,3.9c0.1,1.6-0.4,3.4-2.3,4.1l0,0
				c1,0.2,1.9,1,2.1,2.5l0.6,3.7c0.1,0.8,0.5,1.5,1,1.9l-7.3,0.6c-0.3-0.5-0.3-1.2-0.6-3.2c-0.2-1.3-0.7-2-1.9-1.9l-4.8,0.4l0.4,5.3
				l-6.7,0.6L94.2,1.2z M101.5,8.2l4.8-0.4c1.3-0.1,1.8-0.7,1.7-1.8c-0.1-1.3-1-1.5-2.1-1.4L101.2,5L101.5,8.2z"/>
			<path fill="#231F20" d="M134.9,1.8l8.1,1.7l3.5,18.3l-7-1.5l-0.3-2.1l-6.9-1.5l-1.1,1.8l-7-1.5L134.9,1.8z M137.8,7.7L137.8,7.7
				l-3.2,5.2l4,0.9L137.8,7.7z"/>
			<path fill="#231F20" d="M163.5,15.9l-5.4-3l2.1-3.8l16.8,9.3l-2.1,3.8l-5.4-3l-6.2,11.2l-5.9-3.3L163.5,15.9z"/>
			<path fill="#231F20" d="M187.9,27.4l4.9,4.6l-11.7,12.5l-4.9-4.6L187.9,27.4z"/>
			<path fill="#231F20" d="M209.8,52.6c2.2,3.5,5.9,10-1.6,14.7s-11.8-1.6-13.9-5.1c-2.2-3.5-5.9-10,1.6-14.7S207.7,49.1,209.8,52.6
				z M197.9,60c1.4,2.3,3.5,3.1,6.5,1.3s3.2-4,1.8-6.4c-1.4-2.3-3.5-3.1-6.5-1.3S196.5,57.6,197.9,60z"/>
			<path fill="#231F20" d="M221.5,77.5l1.8,7.5l-7.7,8.8l0,0.1l9.3-2.2l1.5,6.3l-16.7,3.9l-1.7-7.2l7.7-9.2l0,0l-9.3,2.2l-1.5-6.3
				L221.5,77.5z"/>
		</g>
		<g>
			<path fill="#929497" d="M17.3,113.4l-6.6,0.2l0.2,7.2l6.6-0.2l0.1,3.9l-17.1,0.6l-0.1-3.9l7.4-0.3l-0.2-7.2L0.1,114L0,110.1
				l17.1-0.6L17.3,113.4z"/>
			<path fill="#929497" d="M13.3,130.4c1.2,0.1,2.2,0.5,3.2,1c1,0.5,1.8,1.3,2.5,2.2s1.2,2.1,1.6,3.4c0.3,1.3,0.4,2.6,0.2,3.8
				c-0.2,1.2-0.6,2.2-1.2,3.1c-0.6,0.9-1.4,1.7-2.4,2.4s-2.1,1.1-3.3,1.4c-1.2,0.3-2.4,0.4-3.5,0.3c-1.1-0.1-2.2-0.5-3.2-1
				c-1-0.5-1.8-1.3-2.5-2.2c-0.7-0.9-1.2-2.1-1.6-3.4c-0.3-1.3-0.4-2.6-0.2-3.8c0.2-1.2,0.6-2.2,1.2-3.1c0.6-0.9,1.4-1.7,2.3-2.4
				c1-0.6,2-1.1,3.2-1.4C11,130.3,12.2,130.3,13.3,130.4z M8.7,135.2c-0.6,0.3-1.1,0.8-1.6,1.3c-0.4,0.5-0.7,1.1-0.9,1.8
				c-0.2,0.7-0.1,1.4,0.1,2.3c0.2,0.9,0.6,1.5,1,2.1s1,0.9,1.6,1.1s1.3,0.4,2,0.4s1.4-0.1,2.1-0.3c0.7-0.2,1.4-0.4,2.1-0.8
				c0.6-0.3,1.2-0.8,1.6-1.3c0.4-0.5,0.7-1.1,0.9-1.8s0.1-1.4-0.1-2.3c-0.2-0.9-0.6-1.5-1-2.1c-0.5-0.5-1-0.9-1.6-1.1
				c-0.6-0.2-1.3-0.4-2-0.4s-1.5,0.1-2.2,0.3C10,134.6,9.3,134.9,8.7,135.2z"/>
			<path fill="#929497" d="M26.2,154.5l-8.7,9l0,0l12.3-1.7l2.5,5l-15.4,7.6l-1.6-3.3l10.9-5.4l0,0l-12.8,1.5l-1.3-2.7l8.8-9.3l0,0
				L10,160.4l-1.6-3.3l15.4-7.6L26.2,154.5z"/>
			<path fill="#929497" d="M43.3,181.2l-2.5,1.9l-5.8-7.4l-2.9,2.3l5.3,6.8l-2.3,1.8l-5.3-6.8l-3.3,2.6l5.9,7.6l-2.5,1.9l-8.4-10.7
				L35,170.6L43.3,181.2z"/>
			<path fill="#929497" d="M39.5,195.5c-0.1,0.4-0.1,0.9,0,1.3c0.1,0.4,0.3,0.8,0.6,1.3s0.6,0.8,1,1.1c0.3,0.2,0.6,0.5,0.9,0.7
				c0.3,0.2,0.7,0.4,1.1,0.5c0.4,0.1,0.7,0.1,1.1,0.1c0.4-0.1,0.7-0.2,1-0.6c0.3-0.3,0.4-0.7,0.4-1.1c0-0.4-0.2-0.9-0.4-1.3
				c-0.2-0.5-0.6-1-0.9-1.5s-0.7-1.1-1.1-1.6c-0.4-0.6-0.7-1.1-1.1-1.7s-0.5-1.2-0.7-1.8c-0.1-0.6-0.1-1.2,0-1.8s0.5-1.2,1-1.8
				c0.6-0.7,1.2-1.1,2-1.3c0.7-0.2,1.5-0.3,2.2-0.2c0.8,0.1,1.5,0.3,2.2,0.7c0.7,0.4,1.4,0.8,2,1.4c0.7,0.6,1.3,1.3,1.8,2
				c0.5,0.7,0.9,1.5,1.1,2.3s0.2,1.6,0,2.3c-0.2,0.8-0.6,1.5-1.3,2.3l-2.8-2.5c0.3-0.4,0.5-0.8,0.6-1.2c0.1-0.4,0.1-0.7,0-1.1
				s-0.3-0.7-0.5-1s-0.6-0.7-0.9-1c-0.2-0.2-0.5-0.4-0.8-0.6c-0.3-0.2-0.6-0.3-0.9-0.3s-0.6,0-0.9,0c-0.3,0.1-0.5,0.2-0.8,0.5
				c-0.2,0.2-0.4,0.5-0.4,0.7c0,0.2,0,0.6,0.2,1c0.2,0.4,0.5,0.9,0.9,1.5c0.4,0.6,0.9,1.4,1.6,2.3c0.2,0.3,0.5,0.7,0.8,1.2
				c0.3,0.5,0.6,1.1,0.8,1.8c0.2,0.7,0.2,1.4,0.1,2.1s-0.5,1.5-1.1,2.2c-0.5,0.6-1.1,1-1.8,1.3c-0.7,0.3-1.4,0.4-2.2,0.3
				s-1.6-0.3-2.5-0.7c-0.9-0.4-1.8-1-2.7-1.8c-0.7-0.7-1.4-1.4-1.9-2.2c-0.5-0.8-0.9-1.6-1.1-2.5c-0.2-0.8-0.2-1.7,0-2.5
				c0.2-0.9,0.7-1.7,1.4-2.4l2.8,2.5C39.8,194.7,39.6,195.1,39.5,195.5z"/>
			<path fill="#929497" d="M63.9,217.5c-0.9-0.1-1.8-0.3-2.7-0.8c-0.7-0.4-1.3-0.8-1.9-1.3c-0.5-0.5-0.9-1.1-1.2-1.7
				c-0.3-0.6-0.4-1.3-0.4-2c0-0.7,0.2-1.4,0.6-2.1c0.3-0.5,0.6-1,1-1.3c0.4-0.4,0.9-0.6,1.4-0.8c0.5-0.2,1.1-0.3,1.6-0.4
				c0.6-0.1,1.1-0.1,1.7-0.1c-0.2-0.7-0.3-1.4-0.3-2c0-0.6,0.1-1.3,0.4-2c0.3-0.5,0.6-0.9,1.1-1.3c0.4-0.3,0.9-0.5,1.5-0.6
				c0.5-0.1,1.1-0.1,1.7,0c0.6,0.1,1.1,0.3,1.7,0.5c0.6,0.3,1.1,0.7,1.6,1.1c0.5,0.4,0.8,0.9,1,1.4c0.2,0.5,0.4,1,0.4,1.6
				c0,0.6-0.1,1.2-0.5,1.8c-0.5,0.9-1.1,1.5-2,1.9s-1.8,0.5-2.8,0.5l0.8,3.5c0.3-0.2,0.6-0.4,0.8-0.7c0.2-0.3,0.5-0.5,0.7-0.8
				l2.8,1.4c-0.4,0.6-0.9,1.2-1.5,1.7c-0.6,0.5-1.2,0.9-1.9,1.3l1.4,5.3l-3.9-2l-0.5-2.2C65.7,217.4,64.8,217.6,63.9,217.5z
				 M63.8,209.7c-0.3,0-0.7,0.1-1,0.2c-0.3,0.1-0.6,0.3-0.9,0.5c-0.3,0.2-0.5,0.4-0.6,0.8c-0.1,0.3-0.2,0.6-0.2,0.9
				c0,0.3,0.1,0.6,0.2,0.9c0.1,0.3,0.3,0.5,0.5,0.8s0.5,0.4,0.8,0.6c0.6,0.3,1.1,0.4,1.7,0.4c0.6,0,1.1-0.2,1.7-0.4l-1.1-4.6
				C64.5,209.7,64.2,209.7,63.8,209.7z M70.1,204.5c-0.1-0.4-0.4-0.7-0.8-0.9c-0.4-0.2-0.8-0.2-1.2-0.1c-0.4,0.1-0.7,0.4-0.9,0.8
				c-0.2,0.5-0.3,1-0.2,1.4c0.1,0.5,0.2,1,0.3,1.5c0.6,0,1.1-0.1,1.6-0.3s0.9-0.5,1.1-1.1C70.2,205.4,70.3,205,70.1,204.5z"/>
			<path fill="#929497" d="M98.2,215.4c-0.2-0.4-0.4-0.8-0.7-1.1c-0.3-0.3-0.6-0.6-1.1-0.8c-0.4-0.2-0.8-0.4-1.3-0.5
				c-0.9-0.2-1.6-0.1-2.3,0.1c-0.7,0.2-1.2,0.5-1.7,1c-0.5,0.5-0.9,1-1.2,1.7c-0.3,0.7-0.5,1.4-0.7,2.1c-0.1,0.7-0.2,1.4-0.1,2.1
				c0,0.7,0.2,1.4,0.5,2c0.3,0.6,0.7,1.1,1.2,1.6c0.5,0.4,1.3,0.7,2.1,0.9c1.2,0.2,2.2,0,3-0.5c0.8-0.6,1.4-1.4,1.7-2.5l3.7,0.7
				c-0.3,1-0.7,1.9-1.3,2.7c-0.6,0.8-1.2,1.4-2,1.9c-0.8,0.5-1.7,0.8-2.6,0.9c-1,0.1-2,0.1-3.1-0.1c-1.3-0.3-2.5-0.7-3.5-1.4
				c-1-0.7-1.8-1.4-2.4-2.4c-0.6-0.9-1-2-1.2-3.1s-0.2-2.3,0.1-3.5c0.2-1.3,0.7-2.4,1.2-3.4c0.6-1,1.3-1.8,2.2-2.5
				c0.9-0.7,1.9-1.1,3.1-1.4c1.2-0.3,2.4-0.3,3.8,0c1,0.2,1.9,0.5,2.7,0.9s1.5,1,2.1,1.6c0.6,0.6,1,1.4,1.3,2.2
				c0.3,0.8,0.4,1.8,0.3,2.8l-3.7-0.7C98.5,216.2,98.4,215.8,98.2,215.4z"/>
			<path fill="#929497" d="M107.1,217.2c0.4-1.1,0.9-2.1,1.7-2.9c0.7-0.8,1.6-1.5,2.7-2c1.1-0.5,2.3-0.7,3.7-0.8
				c1.4,0,2.6,0.2,3.7,0.6c1.1,0.4,2,1.1,2.8,1.9c0.8,0.8,1.4,1.7,1.8,2.8s0.6,2.3,0.7,3.6c0,1.2-0.2,2.4-0.5,3.5
				c-0.4,1.1-0.9,2-1.7,2.9c-0.7,0.8-1.6,1.5-2.7,1.9c-1.1,0.5-2.3,0.7-3.7,0.8c-1.4,0-2.6-0.2-3.7-0.6c-1.1-0.4-2-1-2.8-1.8
				c-0.8-0.8-1.4-1.7-1.8-2.8c-0.4-1.1-0.6-2.2-0.7-3.5C106.6,219.4,106.8,218.3,107.1,217.2z M110.8,222.7c0.2,0.7,0.5,1.3,0.9,1.8
				s0.9,1,1.5,1.3c0.6,0.3,1.4,0.5,2.3,0.4c0.9,0,1.6-0.2,2.2-0.5s1.1-0.8,1.5-1.3c0.4-0.6,0.6-1.2,0.8-1.9c0.2-0.7,0.2-1.4,0.2-2.1
				c0-0.8-0.1-1.5-0.3-2.2c-0.2-0.7-0.5-1.3-0.9-1.9c-0.4-0.5-0.9-1-1.5-1.3c-0.6-0.3-1.4-0.5-2.3-0.4s-1.6,0.2-2.2,0.5
				c-0.6,0.3-1.1,0.8-1.5,1.3c-0.4,0.6-0.6,1.2-0.8,1.9c-0.2,0.7-0.2,1.4-0.2,2.2C110.5,221.4,110.7,222.1,110.8,222.7z"/>
			<path fill="#929497" d="M133.8,210l7,10.4l0,0l0.9-12.4l5.4-1.4l4.2,16.6l-3.6,0.9l-3-11.8l0,0l-1.3,12.8l-2.9,0.7l-7.2-10.6l0,0
				l3,11.7l-3.6,0.9l-4.2-16.6L133.8,210z"/>
			<path fill="#929497" d="M157.1,201.8l9.5,8.1l0,0l-2.4-12.2l4.8-2.8l8.5,14.9l-3.2,1.8l-6-10.5l0,0l2.2,12.7l-2.6,1.5l-9.8-8.2
				l0,0l6,10.4l-3.2,1.8l-8.5-14.9L157.1,201.8z"/>
			<path fill="#929497" d="M182.6,182.7l2.1,2.3l-7,6.4l2.5,2.7l6.4-5.9l2,2.2l-6.4,5.9l2.8,3.1l7.1-6.5l2.1,2.3l-10,9.2l-11.6-12.6
				L182.6,182.7z"/>
			<path fill="#929497" d="M191,172.2c0.5-0.6,1-1.1,1.6-1.5c0.6-0.4,1.2-0.6,1.8-0.7c0.6-0.1,1.2-0.1,1.8,0.1
				c0.6,0.2,1.2,0.4,1.7,0.8c0.8,0.6,1.4,1.3,1.7,2.1c0.3,0.8,0.3,1.7,0,2.7l0,0c0.4-0.3,0.8-0.5,1.2-0.6c0.4-0.1,0.8-0.1,1.2-0.1
				c0.4,0.1,0.8,0.2,1.2,0.4c0.4,0.2,0.8,0.4,1.1,0.6c0.2,0.2,0.5,0.3,0.8,0.5c0.3,0.2,0.6,0.4,1,0.6c0.3,0.2,0.7,0.4,1,0.5
				c0.3,0.1,0.6,0.2,0.9,0.2l-2.4,3.1c-0.6-0.2-1.2-0.4-1.8-0.9c-0.6-0.4-1.2-0.8-1.9-1.1c-0.8-0.4-1.5-0.6-2.1-0.5
				c-0.6,0.1-1.2,0.5-1.8,1.3l-2.4,3.1l5.3,4.1l-2.4,3.1l-13.6-10.4L191,172.2z M196.3,178c0.5-0.7,0.8-1.4,0.8-2
				c0-0.6-0.4-1.1-1.1-1.7c-0.7-0.5-1.3-0.7-1.9-0.6c-0.6,0.1-1.1,0.6-1.7,1.3l-2.6,3.4l3.8,2.9L196.3,178z"/>
			<path fill="#929497" d="M205.7,156.3c-0.4,0-0.8,0.2-1.2,0.4s-0.8,0.4-1.1,0.8c-0.3,0.3-0.6,0.7-0.8,1.1
				c-0.4,0.8-0.6,1.5-0.6,2.2c0,0.7,0.2,1.3,0.5,1.9s0.8,1.1,1.3,1.6c0.5,0.5,1.2,0.9,1.8,1.2c0.6,0.3,1.3,0.6,2,0.7
				c0.7,0.2,1.4,0.2,2,0.1c0.7-0.1,1.3-0.3,1.8-0.8c0.6-0.4,1.1-1,1.5-1.8c0.5-1.1,0.7-2.1,0.3-3c-0.3-0.9-1-1.7-1.9-2.4l1.7-3.4
				c0.9,0.6,1.7,1.2,2.2,2c0.6,0.8,1,1.6,1.2,2.5c0.2,0.9,0.3,1.8,0.2,2.8c-0.1,1-0.4,1.9-0.9,2.9c-0.6,1.2-1.4,2.2-2.3,3
				c-0.9,0.8-1.9,1.3-2.9,1.6c-1.1,0.3-2.2,0.4-3.3,0.3c-1.1-0.1-2.3-0.5-3.4-1c-1.1-0.6-2.1-1.3-2.9-2.1c-0.8-0.9-1.4-1.8-1.8-2.8
				c-0.4-1-0.5-2.2-0.5-3.3c0.1-1.2,0.4-2.4,1-3.6c0.4-0.9,1-1.6,1.6-2.3c0.6-0.7,1.3-1.2,2.1-1.6c0.8-0.4,1.6-0.6,2.5-0.7
				c0.9-0.1,1.8,0.1,2.7,0.4l-1.7,3.4C206.5,156.3,206.1,156.2,205.7,156.3z"/>
			<path fill="#929497" d="M205.8,143.6l16.1,5.8l-1.3,3.7l-16.1-5.8L205.8,143.6z"/>
			<path fill="#929497" d="M209.1,131.3l18.2-2.8l-0.9,4l-4,0.5l-1.4,6.5l3.4,2.2l-0.9,3.9l-15.3-10.3L209.1,131.3z M219.4,133.4
				l-6.6,0.8l0,0l5.6,3.6L219.4,133.4z"/>
			<path fill="#929497" d="M210.7,118.1l14,0.3l0.2-8.7l3.2,0.1l-0.3,12.6l-17.1-0.4L210.7,118.1z"/>
		</g>
	</g>
	<g>
		<g>
			<path fill="#231F20" d="M124.7,75.5c3,0,5.4-2.4,5.4-5.4c0-3-2.4-5.4-5.4-5.4c-3,0-5.4,2.4-5.4,5.4
				C119.3,73.1,121.8,75.5,124.7,75.5z"/>
			<polygon fill="#231F20" points="126.5,140.1 126.5,114 138.5,122.1 140.1,119.7 107.3,97.3 125,85.4 170.2,116.2 167.7,119.9 
				154.1,110.6 154.1,140 			"/>
			<polygon fill="#231F20" points="101.2,124.1 110,130 111.2,128.2 87.1,111.8 62.8,128.3 64,130 72.8,124 72.8,139.7 101.3,139.7 
							"/>
			<path fill="#231F20" d="M87.4,104.3c1.8,0,3.2-1.4,3.2-3.2c0-1.8-1.4-3.2-3.2-3.2c-1.8,0-3.2,1.4-3.2,3.2
				C84.2,102.8,85.6,104.3,87.4,104.3z"/>
		</g>
		<g>
			<path fill="#231F20" d="M107.8,81.1c0.3,0.1,0.5,0.3,0.7,0.5c1.1,0.7,1.9,1.8,2.3,3c0.1,0.3,0.2,0.7,0.3,1c0.1,0.7,0.1,1.5,0,2.2
				l-0.1,0.1l-14.7,0c-0.1-0.1-0.1-0.2-0.1-0.4c0.1-0.4,0.5-0.4,0.8-0.6c0.2-0.1,0.4-0.1,0.6-0.3c0.8-0.4,1.5-1.3,1.8-2.1
				c0.2-0.6,0.5-1.1,0.9-1.6c0.7-0.9,1.6-1.6,2.6-1.9c0.4-0.1,0.5,0.3,0.8,0.5c0.1,0.1,0.4,0.2,0.5,0.3c0.4,0.2,0.9,0.3,1.4,0.2
				c0.3,0,0.4-0.2,0.6-0.2c0.4-0.2,0.7-0.5,1-0.8C107.4,80.8,107.6,81,107.8,81.1z"/>
			<path fill="#231F20" d="M98.9,86.5c0-3.4,2.8-6.2,6.2-6.2c3.4,0,6.2,2.8,6.2,6.2H98.9z"/>
			<path fill="#231F20" d="M101,86.2c0-2.2,1.8-4,4-4c2.2,0,4,1.8,4,4H101z"/>
		</g>
	</g>
</g>
</svg>
