<?xml version="1.0" encoding="utf-8"?>
<!-- Generator: Adobe Illustrator 25.1.0, SVG Export Plug-In . SVG Version: 6.00 Build 0)  -->
<svg version="1.1" id="Layer_1" xmlns="http://www.w3.org/2000/svg" xmlns:xlink="http://www.w3.org/1999/xlink" x="0px" y="0px"
	 viewBox="0 0 345.1 55.5" enable-background="new 0 0 345.1 55.5" xml:space="preserve">
<path fill="#485E2A" d="M98,26.2h10.8v11h-3.3l-0.9-1.8c-2,1.8-4.5,2.4-8.8,2.4c-5.3,0-12.6-1.3-12.6-10.2c0-8.4,6.7-10.4,12.6-10.4
	c8.5,0,12.5,2.3,13.1,7.3h-8.6c-0.2-1-0.8-1.6-1.5-2c-0.7-0.4-1.6-0.5-2.6-0.5c-3.1,0-5.1,1.5-5.1,5.5c0,3.6,1.9,5.5,5.7,5.5
	c2.5,0,3.7-1,4.3-2.4H98V26.2z"/>
<path fill="#485E2A" d="M115.2,17.9h20.5v4.7h-12.9v2.6h12v4.7h-12v2.6h12.9v4.7h-20.5V17.9z"/>
<path fill="#485E2A" d="M141.1,17.9h8.7l7.7,10.7h0.1V17.9h7.3v19.3h-8.3l-8.1-10.8h-0.1v10.8h-7.3V17.9z"/>
<path fill="#485E2A" d="M171.5,17.9H192v4.7h-12.9v2.6h12v4.7h-12v2.6H192v4.7h-20.5V17.9z"/>
<path fill="#485E2A" d="M197.4,17.9h16c2.2,0,3.5,0.2,4.6,0.7c1.4,0.7,2.6,2.6,2.6,4.7c0,1.8-0.8,3.8-3,4.4v0.1
	c1.1,0.3,2.1,1.3,2.2,3l0.3,4.2c0.1,0.9,0.5,1.7,0.9,2.3h-8.3c-0.3-0.6-0.3-1.4-0.4-3.6c-0.1-1.4-0.6-2.3-2-2.3H205v5.9h-7.6V17.9z
	 M205,26.4h5.4c1.5,0,2.1-0.6,2.1-1.8c0-1.5-0.9-1.8-2.2-1.8H205V26.4z"/>
<path fill="#485E2A" d="M231.7,17.9h9.3l8.2,19.3h-8.1l-0.8-2.2h-7.9l-0.8,2.2h-8.1L231.7,17.9z M236.4,23.8L236.4,23.8l-2.3,6.5
	h4.6L236.4,23.8z"/>
<path fill="#485E2A" d="M256.7,22.8h-7v-4.9h21.7v4.9h-7v14.4h-7.6V22.8z"/>
<path fill="#485E2A" d="M276.1,17.9h7.6v19.3h-7.6V17.9z"/>
<path fill="#485E2A" d="M302.5,17.2c4.6,0,13.2,0.3,13.2,10.3s-8.6,10.3-13.2,10.3c-4.6,0-13.2-0.3-13.2-10.3S297.9,17.2,302.5,17.2
	z M302.5,33c3.1,0,5.1-1.5,5.1-5.5s-2-5.5-5.1-5.5c-3.1,0-5.1,1.5-5.1,5.5S299.4,33,302.5,33z"/>
<path fill="#485E2A" d="M321.3,17.9h8.7l7.7,10.7h0.1V17.9h7.3v19.3h-8.3l-8.1-10.8h-0.1v10.8h-7.3V17.9z"/>
<path fill="#97A580" d="M87.1,40.9v5.5h6.1v-5.5h3.3v14.3h-3.3V49h-6.1v6.2h-3.3V40.9H87.1z"/>
<path fill="#97A580" d="M99.9,45.1c0.3-0.9,0.8-1.7,1.4-2.4c0.6-0.7,1.4-1.2,2.3-1.6s1.9-0.6,3.1-0.6c1.2,0,2.2,0.2,3.1,0.6
	s1.7,0.9,2.3,1.6c0.6,0.7,1.1,1.5,1.4,2.4s0.5,1.9,0.5,3c0,1-0.2,2-0.5,2.9s-0.8,1.7-1.4,2.3c-0.6,0.7-1.4,1.2-2.3,1.6
	s-1.9,0.6-3.1,0.6c-1.1,0-2.2-0.2-3.1-0.6s-1.7-0.9-2.3-1.6c-0.6-0.7-1.1-1.4-1.4-2.3c-0.3-0.9-0.5-1.9-0.5-2.9
	C99.4,47,99.6,46.1,99.9,45.1z M102.9,49.9c0.1,0.6,0.4,1.1,0.7,1.5c0.3,0.5,0.7,0.8,1.3,1.1s1.1,0.4,1.9,0.4s1.4-0.1,1.9-0.4
	c0.5-0.3,0.9-0.6,1.3-1.1s0.6-1,0.7-1.5c0.1-0.6,0.2-1.2,0.2-1.8c0-0.6-0.1-1.2-0.2-1.8c-0.1-0.6-0.4-1.1-0.7-1.6s-0.7-0.8-1.3-1.1
	c-0.5-0.3-1.1-0.4-1.9-0.4s-1.4,0.1-1.9,0.4c-0.5,0.3-0.9,0.6-1.3,1.1c-0.3,0.5-0.6,1-0.7,1.6c-0.1,0.6-0.2,1.2-0.2,1.8
	C102.7,48.7,102.8,49.3,102.9,49.9z"/>
<path fill="#97A580" d="M121.6,40.9l3.5,9.8h0l3.3-9.8h4.6v14.3h-3.1V45.1h0l-3.7,10.1h-2.5l-3.7-10h0v10H117V40.9H121.6z"/>
<path fill="#97A580" d="M147.9,40.9v2.6H140v3.1h7.3v2.4H140v3.5h8.1v2.6h-11.4V40.9H147.9z"/>
<path fill="#97A580" d="M153.4,51.7c0.2,0.3,0.4,0.6,0.7,0.8s0.7,0.4,1.1,0.5c0.4,0.1,0.8,0.2,1.3,0.2c0.3,0,0.6,0,0.9-0.1
	s0.7-0.1,0.9-0.3c0.3-0.1,0.5-0.3,0.7-0.5c0.2-0.2,0.3-0.5,0.3-0.9c0-0.4-0.1-0.7-0.4-0.9c-0.3-0.2-0.6-0.4-1-0.6s-0.9-0.3-1.4-0.4
	c-0.5-0.1-1.1-0.3-1.6-0.4c-0.6-0.1-1.1-0.3-1.6-0.5c-0.5-0.2-1-0.4-1.4-0.8c-0.4-0.3-0.8-0.7-1-1.1c-0.3-0.5-0.4-1-0.4-1.7
	c0-0.7,0.2-1.4,0.5-1.9c0.3-0.5,0.8-1,1.3-1.3c0.5-0.4,1.1-0.6,1.8-0.8c0.7-0.2,1.3-0.3,2-0.3c0.8,0,1.5,0.1,2.3,0.2
	c0.7,0.2,1.4,0.4,1.9,0.8c0.6,0.4,1,0.8,1.3,1.4c0.3,0.6,0.5,1.3,0.5,2.1h-3.2c0-0.4-0.1-0.8-0.3-1.1c-0.2-0.3-0.4-0.5-0.6-0.7
	s-0.6-0.3-0.9-0.3c-0.3-0.1-0.7-0.1-1.1-0.1c-0.3,0-0.5,0-0.8,0.1c-0.3,0.1-0.5,0.1-0.7,0.3c-0.2,0.1-0.4,0.3-0.5,0.5
	c-0.1,0.2-0.2,0.5-0.2,0.8c0,0.3,0.1,0.5,0.2,0.7c0.1,0.2,0.3,0.3,0.7,0.5c0.3,0.1,0.8,0.3,1.4,0.4c0.6,0.1,1.3,0.3,2.3,0.6
	c0.3,0.1,0.7,0.2,1.2,0.3c0.5,0.1,1,0.4,1.5,0.7c0.5,0.3,0.9,0.7,1.3,1.2c0.4,0.5,0.5,1.2,0.5,2c0,0.7-0.1,1.3-0.4,1.8
	c-0.3,0.6-0.7,1-1.2,1.5c-0.5,0.4-1.2,0.7-2,1s-1.7,0.3-2.7,0.3c-0.8,0-1.6-0.1-2.4-0.3c-0.8-0.2-1.5-0.5-2.1-0.9s-1.1-0.9-1.4-1.6
	s-0.5-1.4-0.5-2.3h3.2C153.2,50.9,153.3,51.3,153.4,51.7z"/>
<path fill="#97A580" d="M178,55c-0.7,0.3-1.4,0.4-2.3,0.4c-0.7,0-1.3-0.1-1.9-0.3c-0.6-0.2-1.1-0.5-1.5-0.8c-0.4-0.4-0.8-0.8-1-1.3
	c-0.3-0.5-0.4-1.1-0.4-1.8c0-0.5,0.1-1,0.3-1.4s0.4-0.8,0.7-1.1s0.7-0.6,1.1-0.9c0.4-0.3,0.8-0.5,1.3-0.7c-0.4-0.5-0.7-0.9-1-1.4
	s-0.4-1-0.4-1.6c0-0.5,0.1-0.9,0.3-1.3c0.2-0.4,0.5-0.7,0.9-1c0.4-0.3,0.8-0.5,1.2-0.7s1-0.2,1.5-0.2c0.6,0,1.1,0.1,1.6,0.2
	c0.5,0.1,0.9,0.4,1.3,0.6c0.4,0.3,0.7,0.6,0.9,1.1c0.2,0.4,0.3,0.9,0.3,1.5c0,0.8-0.3,1.5-0.8,2.1c-0.5,0.6-1.1,1.1-1.9,1.4l1.9,2.3
	c0.2-0.3,0.3-0.5,0.4-0.8c0.1-0.3,0.1-0.6,0.2-0.9h2.6c-0.1,0.6-0.2,1.3-0.5,1.9c-0.2,0.6-0.6,1.2-1,1.7l3,3.4h-3.7l-1.2-1.4
	C179.3,54.3,178.7,54.8,178,55z M175,49.3c-0.3,0.1-0.5,0.3-0.7,0.5c-0.2,0.2-0.4,0.4-0.5,0.7c-0.1,0.2-0.2,0.5-0.2,0.8
	c0,0.3,0.1,0.5,0.2,0.7c0.1,0.2,0.3,0.4,0.5,0.6c0.2,0.2,0.4,0.3,0.7,0.4s0.5,0.2,0.8,0.2c0.5,0,1-0.1,1.4-0.4s0.8-0.5,1.1-0.9
	l-2.6-3C175.5,49,175.3,49.1,175,49.3z M177.8,43.1c-0.3-0.3-0.6-0.4-1-0.4c-0.4,0-0.7,0.1-0.9,0.3c-0.3,0.2-0.4,0.5-0.4,0.9
	c0,0.5,0.1,0.8,0.4,1.2s0.5,0.6,0.8,1c0.4-0.3,0.8-0.5,1.1-0.8s0.5-0.7,0.5-1.2C178.2,43.6,178.1,43.3,177.8,43.1z"/>
<path fill="#97A580" d="M202.7,44.7c-0.2-0.3-0.4-0.6-0.7-0.8s-0.6-0.4-1-0.5c-0.4-0.1-0.8-0.2-1.2-0.2c-0.7,0-1.4,0.1-1.9,0.4
	c-0.5,0.3-0.9,0.6-1.3,1.1c-0.3,0.5-0.6,1-0.7,1.6c-0.1,0.6-0.2,1.2-0.2,1.8c0,0.6,0.1,1.2,0.2,1.8c0.1,0.6,0.4,1.1,0.7,1.5
	c0.3,0.5,0.7,0.8,1.3,1.1c0.5,0.3,1.1,0.4,1.9,0.4c1,0,1.8-0.3,2.4-0.9c0.6-0.6,0.9-1.4,1-2.3h3.2c-0.1,0.9-0.3,1.7-0.7,2.4
	c-0.4,0.7-0.8,1.3-1.4,1.8c-0.6,0.5-1.2,0.9-2,1.2c-0.8,0.3-1.6,0.4-2.5,0.4c-1.1,0-2.2-0.2-3.1-0.6s-1.7-0.9-2.3-1.6
	c-0.6-0.7-1.1-1.4-1.4-2.3c-0.3-0.9-0.5-1.9-0.5-2.9c0-1.1,0.2-2.1,0.5-3c0.3-0.9,0.8-1.7,1.4-2.4c0.6-0.7,1.4-1.2,2.3-1.6
	s2-0.6,3.1-0.6c0.8,0,1.6,0.1,2.3,0.3c0.7,0.2,1.4,0.6,2,1c0.6,0.4,1.1,1,1.4,1.6c0.4,0.6,0.6,1.4,0.7,2.2h-3.2
	C203.1,45.4,202.9,45,202.7,44.7z"/>
<path fill="#97A580" d="M209.2,45.1c0.3-0.9,0.8-1.7,1.4-2.4c0.6-0.7,1.4-1.2,2.3-1.6s1.9-0.6,3.1-0.6c1.2,0,2.2,0.2,3.1,0.6
	s1.7,0.9,2.3,1.6c0.6,0.7,1.1,1.5,1.4,2.4s0.5,1.9,0.5,3c0,1-0.2,2-0.5,2.9s-0.8,1.7-1.4,2.3c-0.6,0.7-1.4,1.2-2.3,1.6
	s-1.9,0.6-3.1,0.6c-1.1,0-2.2-0.2-3.1-0.6s-1.7-0.9-2.3-1.6c-0.6-0.7-1.1-1.4-1.4-2.3s-0.5-1.9-0.5-2.9
	C208.7,47,208.8,46.1,209.2,45.1z M212.2,49.9c0.1,0.6,0.4,1.1,0.7,1.5s0.7,0.8,1.3,1.1c0.5,0.3,1.1,0.4,1.9,0.4s1.4-0.1,1.9-0.4
	s0.9-0.6,1.3-1.1s0.6-1,0.7-1.5c0.1-0.6,0.2-1.2,0.2-1.8c0-0.6-0.1-1.2-0.2-1.8c-0.1-0.6-0.4-1.1-0.7-1.6s-0.7-0.8-1.3-1.1
	c-0.5-0.3-1.1-0.4-1.9-0.4s-1.4,0.1-1.9,0.4c-0.5,0.3-0.9,0.6-1.3,1.1s-0.6,1-0.7,1.6c-0.1,0.6-0.2,1.2-0.2,1.8
	C212,48.7,212,49.3,212.2,49.9z"/>
<path fill="#97A580" d="M230.9,40.9l3.5,9.8h0l3.3-9.8h4.6v14.3h-3.1V45.1h0l-3.7,10.1h-2.5l-3.7-10h0v10h-3.1V40.9H230.9z"/>
<path fill="#97A580" d="M250.6,40.9l3.5,9.8h0l3.3-9.8h4.6v14.3H259V45.1h0l-3.7,10.1h-2.5l-3.7-10h0v10H246V40.9H250.6z"/>
<path fill="#97A580" d="M276.9,40.9v2.6h-7.9v3.1h7.3v2.4h-7.3v3.5h8.1v2.6h-11.4V40.9H276.9z"/>
<path fill="#97A580" d="M288,40.9c0.7,0,1.3,0.1,1.8,0.3s1,0.5,1.4,0.8s0.7,0.8,0.9,1.2c0.2,0.5,0.3,1,0.3,1.5
	c0,0.8-0.2,1.6-0.6,2.2s-1,1.1-1.8,1.4v0c0.4,0.1,0.7,0.3,1,0.5c0.3,0.2,0.5,0.5,0.7,0.8s0.3,0.6,0.4,1s0.1,0.7,0.2,1.1
	c0,0.2,0,0.5,0,0.8c0,0.3,0,0.6,0.1,0.9c0,0.3,0.1,0.6,0.2,0.9c0.1,0.3,0.2,0.5,0.3,0.7h-3.3c-0.2-0.5-0.3-1-0.3-1.6
	c0-0.6-0.1-1.2-0.2-1.8c-0.1-0.7-0.4-1.3-0.7-1.6c-0.4-0.3-1-0.5-1.8-0.5h-3.3v5.6h-3.3V40.9H288z M286.8,47.4
	c0.8,0,1.3-0.2,1.7-0.5c0.4-0.3,0.6-0.8,0.6-1.6c0-0.7-0.2-1.2-0.6-1.5s-0.9-0.5-1.7-0.5h-3.6v4H286.8z"/>
<path fill="#97A580" d="M305.3,44.7c-0.2-0.3-0.4-0.6-0.7-0.8s-0.6-0.4-1-0.5c-0.4-0.1-0.8-0.2-1.2-0.2c-0.7,0-1.4,0.1-1.9,0.4
	c-0.5,0.3-0.9,0.6-1.3,1.1c-0.3,0.5-0.6,1-0.7,1.6c-0.1,0.6-0.2,1.2-0.2,1.8c0,0.6,0.1,1.2,0.2,1.8c0.1,0.6,0.4,1.1,0.7,1.5
	c0.3,0.5,0.7,0.8,1.3,1.1c0.5,0.3,1.1,0.4,1.9,0.4c1,0,1.8-0.3,2.4-0.9c0.6-0.6,0.9-1.4,1-2.3h3.2c-0.1,0.9-0.3,1.7-0.7,2.4
	c-0.4,0.7-0.8,1.3-1.4,1.8c-0.6,0.5-1.2,0.9-2,1.2c-0.8,0.3-1.6,0.4-2.5,0.4c-1.1,0-2.2-0.2-3.1-0.6s-1.7-0.9-2.3-1.6
	c-0.6-0.7-1.1-1.4-1.4-2.3s-0.5-1.9-0.5-2.9c0-1.1,0.2-2.1,0.5-3s0.8-1.7,1.4-2.4c0.6-0.7,1.4-1.2,2.3-1.6s1.9-0.6,3.1-0.6
	c0.8,0,1.6,0.1,2.3,0.3c0.7,0.2,1.4,0.6,2,1c0.6,0.4,1.1,1,1.4,1.6c0.4,0.6,0.6,1.4,0.7,2.2h-3.2C305.6,45.4,305.5,45,305.3,44.7z"
	/>
<path fill="#97A580" d="M315.2,40.9v14.3h-3.3V40.9H315.2z"/>
<path fill="#97A580" d="M326.2,40.9l5.6,14.3h-3.4l-1.1-3.2h-5.6l-1.2,3.2h-3.3l5.7-14.3H326.2z M326.4,49.7l-1.9-5.2h0l-2,5.2
	H326.4z"/>
<path fill="#97A580" d="M337,40.9v11.6h7.3v2.6h-10.6V40.9H337z"/>
<g>
	<g>
		<path fill="#76875B" d="M45.5,7.9c2.2,0,4-1.8,4-4c0-2.2-1.8-4-4-4c-2.2,0-4,1.8-4,4C41.5,6.2,43.3,7.9,45.5,7.9z"/>
		<polygon fill="#76875B" points="46.8,55.3 46.8,36.2 55.5,42.1 56.8,40.3 32.7,23.9 45.6,15.2 78.8,37.8 77,40.5 67,33.7 67,55.2 
					"/>
		<polygon fill="#76875B" points="28.2,43.6 34.6,47.9 35.5,46.6 17.8,34.5 0,46.7 0.9,47.9 7.3,43.5 7.4,55.1 28.2,55.1 		"/>
		<path fill="#76875B" d="M18.1,29c1.3,0,2.3-1,2.3-2.3c0-1.3-1-2.3-2.3-2.3c-1.3,0-2.3,1.1-2.3,2.3C15.7,28,16.8,29,18.1,29z"/>
	</g>
	<g>
		<path fill="#76875B" d="M33,12c0.2,0.1,0.4,0.2,0.5,0.3c0.8,0.5,1.4,1.3,1.7,2.2c0.1,0.2,0.1,0.5,0.2,0.7c0.1,0.5,0.1,1.1,0,1.6
			l-0.1,0l-10.8,0c-0.1-0.1-0.1-0.2-0.1-0.3c0.1-0.3,0.4-0.3,0.6-0.4c0.1-0.1,0.3-0.1,0.4-0.2c0.6-0.3,1.1-0.9,1.3-1.6
			c0.2-0.4,0.4-0.8,0.6-1.2c0.5-0.7,1.2-1.2,1.9-1.4c0.3-0.1,0.4,0.2,0.6,0.4c0.1,0.1,0.3,0.1,0.4,0.2c0.3,0.1,0.7,0.2,1,0.1
			c0.2,0,0.3-0.1,0.5-0.1c0.3-0.2,0.5-0.4,0.8-0.6C32.7,11.8,32.9,11.9,33,12z"/>
		<path fill="#76875B" d="M26.5,16c0-2.5,2-4.5,4.5-4.5c2.5,0,4.5,2,4.5,4.5H26.5z"/>
		<path fill="#76875B" d="M28.1,15.8c0-1.6,1.3-2.9,2.9-2.9c1.6,0,2.9,1.3,2.9,2.9H28.1z"/>
	</g>
</g>
</svg>
